<?xml version="1.0" encoding="utf-8"?>
<!-- Generator: Adobe Illustrator 26.5.0, SVG Export Plug-In . SVG Version: 6.00 Build 0)  -->
<svg version="1.1" id="Layer_1" xmlns="http://www.w3.org/2000/svg" xmlns:xlink="http://www.w3.org/1999/xlink" x="0px" y="0px"
	 viewBox="0 0 2000 2000" style="enable-background:new 0 0 2000 2000;" xml:space="preserve">
<style type="text/css">
	.st0{fill:#FD842B;}
	.st1{fill:#5B4B40;}
</style>
<g>
	<g>
		<path class="st0" d="M807.04,478.92c0-2.01-0.2-3.96-0.6-5.9l-0.18-0.74c-1.05-4.39-3.09-8.45-5.96-11.89
			c-3.84,2.06-7.87,3.67-12.03,4.8c0.1,0.73,0.19,1.49,0.27,2.27c0.17,1.78,0.26,3.58,0.26,5.51c0,8.41-2.94,17.91-5.31,24.22
			c-0.03,0.09-0.07,0.19-0.1,0.27c0.05,0.02,0.09,0.04,0.14,0.06l0.6,0.23c0.67,0.27,1.37,0.48,2.09,0.63
			c0.04,0.01,0.08,0.01,0.12,0.02c1.33,0.32,2.6,0.48,4.04,0.46c0.12,0,0.24,0,0.36-0.01c0.71-0.02,1.26-0.08,1.79-0.16l0.27-0.03
			c3.61-0.55,6.93-2.24,9.46-4.8l-0.33-0.3l2.66-2.65c1.62-2.64,2.45-5.6,2.45-8.66c0-0.39,0-0.77-0.03-1.15l-0.02-0.24l0.01-0.24
			C807.04,480.05,807.04,479.48,807.04,478.92z"/>
		<path class="st0" d="M673.8,487.75c-0.61-2.69-1.06-5.26-1.37-7.72c-0.32-2.49-0.49-4.86-0.49-7.06c0-2.67,0.18-5.28,0.54-7.78
			c-4.16-1.13-8.19-2.74-12.04-4.8c-2.87,3.44-4.91,7.49-5.96,11.87c-0.52,2.15-0.79,4.36-0.8,6.55c0,0.65,0.02,1.21,0.05,1.78
			l0.01,0.24l-0.02,0.24c-0.03,0.38-0.04,0.76-0.04,1.15c0,3.17,0.91,6.25,2.63,8.91c0.09,0.13,0.17,0.24,0.24,0.36
			c0.02,0.02,0.06,0.07,0.1,0.14c0.36,0.52,0.77,1.04,1.21,1.53c0.67,0.75,1.36,1.42,2.08,1.98c3,2.39,6.78,3.7,10.63,3.7
			c1.25,0,2.48-0.14,3.66-0.41c0.07-0.02,0.14-0.02,0.21-0.04c0.76-0.18,1.49-0.4,2.17-0.65c-0.07-0.21-0.13-0.41-0.19-0.62
			C675.36,493.9,674.48,490.76,673.8,487.75z"/>
		<path class="st0" d="M682.55,502.96l0.19-0.07c-0.01-0.01-0.01-0.02-0.02-0.03C682.67,502.9,682.61,502.93,682.55,502.96z"/>
		<polygon class="st0" points="776.94,504.65 777.12,504.65 776.94,504.65 		"/>
		<path class="st0" d="M779.97,499.8c0.05-0.08,0.09-0.17,0.14-0.25l-0.26,0.18C779.88,499.75,779.92,499.77,779.97,499.8z"/>
		<path class="st0" d="M681.1,499.63c0.27-0.16,0.25-0.18,0-0.03C681.1,499.61,681.11,499.65,681.1,499.63z"/>
		<polygon class="st0" points="783.53,484.05 783.53,484.05 783.53,484.05 		"/>
		<path class="st0" d="M773.48,504.62c-0.02,0.02-0.02,0.02-0.04,0.04v0.02c0.09-0.07,0.17-0.16,0.24-0.24
			c-0.04,0.04-0.09,0.07-0.13,0.11L773.48,504.62z"/>
		<path class="st0" d="M783.41,477.05c0.02,0.13,0.04,0.24,0.04,0.36c0-0.16-0.02-0.34-0.04-0.51V477.05z"/>
		<path class="st0" d="M813.01,376.4c-0.29-0.87-0.61-1.74-0.92-2.61c-0.37,0.11-0.75,0.22-1.12,0.34
			c-14.99,4.51-28.25,12.89-38.58,23.98c-12.3-6.58-26.43-10.31-41.42-10.31c-15.34,0-29.74,3.91-42.24,10.76
			c-10.37-11.31-23.78-19.86-38.95-24.45c-0.39-0.11-0.77-0.24-1.16-0.34c-0.33,0.89-0.64,1.78-0.94,2.66
			c-2.83,8.45-4.36,17.49-4.36,26.88c0,12.78,2.85,24.9,7.94,35.79c2.07,4.44,10.36,13.6,10.36,13.6
			c4.87,2.94,10.09,5.01,15.53,6.16l3.79,0.78l-0.68,3.55c-0.05,0.25-0.11,0.49-0.13,0.74l-0.05,0.32c-0.53,2.74-0.8,5.68-0.8,8.73
			c0,4.47,0.82,9.91,2.34,15.82c0.28,1.08,0.58,2.18,0.9,3.29c0.5,1.71,1.05,3.46,1.66,5.22c0.07,0.2,0.13,0.39,0.2,0.59
			c0.19,0.55,0.31,0.89,0.36,1.3c0.07,0.11,0.13,0.23,0.2,0.34c1.26,2.09,2.67,4.07,4.2,5.96c4.55,5.59,10.24,10.23,16.72,13.59
			c7.33,3.8,15.66,5.96,24.5,5.96c9.36,0,18.15-2.42,25.78-6.65c5.12-2.84,9.72-6.49,13.61-10.78c0.64-0.71,1.27-1.44,1.88-2.18
			c0.46-0.57,0.91-1.14,1.34-1.73c0.79-1.06,1.99-4.96,2.49-6.17c1.94-4.74,3.44-9.3,4.45-13.49c0.1-0.41,0.17-0.8,0.26-1.2
			l0.23,0.07l-0.2-0.21c0.19-0.87,0.37-1.73,0.51-2.57c0.16-0.92,0.3-1.82,0.41-2.7c0.02-0.17,0.04-0.34,0.05-0.51
			c0.15-1.39,0.26-2.73,0.26-3.97c0-1.69-0.07-3.26-0.22-4.8c-0.18-1.79-0.43-3.42-0.75-4.96l-0.73-3.49l3.84-0.85
			c0.36-0.08,0.72-0.16,1.08-0.25c5.1-1.2,9.94-3.19,14.45-5.92c0,0,8.79-10,10.97-14.94c4.71-10.53,7.32-22.18,7.32-34.43
			C817.39,393.92,815.86,384.86,813.01,376.4z M697.94,410.98c9.75-6.62,21.17-10.12,33.04-10.12c11.44,0,22.54,3.28,32.09,9.5
			l2.94,1.91l-1.81,2.98c-0.29,0.48-0.56,0.95-0.82,1.45c-1.76,3.16-3.28,6.37-4.57,9.64c-0.27,0.62-0.45,1.11-0.62,1.61l-1.36,4.04
			l-3.83-1.97c-3.87-1.99-8-3.47-12.28-4.38c-0.52-0.11-1.06-0.22-1.62-0.3c-5.8-1.05-11.78-1.02-17.31-0.02
			c-0.7,0.1-1.24,0.21-1.78,0.33c-4.29,0.92-8.43,2.39-12.27,4.39l-3.73,1.94l-1.44-3.9c-0.21-0.57-0.42-1.12-0.65-1.68
			c-1.2-3.07-2.61-6.1-4.21-9.02c-0.3-0.58-0.59-1.1-0.88-1.6l-1.65-2.89L697.94,410.98z M757.82,492.85
			c-2.3,0.87-4.8,1.36-7.41,1.36c-0.81,0-1.62-0.05-2.41-0.15c-0.79-0.09-1.58-0.22-2.34-0.4c-0.02-0.04-0.05-0.07-0.07-0.09
			c0.29-0.83,0.64-1.65,1.05-2.45c0.66-1.4,1.43-2.74,2.3-4.02c1.31-1.9,2.79-3.68,4.47-5.31c4.69-4.51,10.76-7.68,17.53-8.83
			c0.02,0.33,0.02,0.65,0.02,1c0,0.38-0.02,0.76-0.04,1.14v0.05c-0.09,1.54-0.35,3.03-0.77,4.44c-0.11,0.05-0.24,0.11-0.35,0.18
			c-0.07,0.42-0.11,0.8-0.13,1.23v0.02C767.63,486.46,763.29,490.77,757.82,492.85z M714.09,491.15c-0.4,1-0.86,1.98-1.38,2.92
			c-0.79,0.09-1.6,0.15-2.41,0.15c-2.61,0-5.09-0.47-7.39-1.36c-5.46-2.07-9.78-6.36-11.84-11.76c0-0.02,0-0.02,0-0.04
			c-0.02-0.42-0.05-0.85-0.11-1.25h-0.02c-0.18-1.63-0.57-3.21-1.14-4.69c0,0,0,0-0.02-0.02c0-0.36-0.02-0.74-0.02-1.12
			c0-0.34,0-0.67,0.02-1c6.77,1.14,12.84,4.31,17.53,8.83c1.67,1.63,3.16,3.41,4.47,5.31C712.64,488.4,713.41,489.76,714.09,491.15z
			 M732.68,519.33c-0.74,0.2-1.49,0.33-2.3,0.33c-4.34,0-7.85-3.46-7.85-7.72v-0.2c0-0.07,0-0.16,0.02-0.24v-0.02
			c0.24-0.07,0.48-0.18,0.7-0.27c0.51-0.2,0.99-0.44,1.49-0.65c0.26-0.11,0.5-0.24,0.74-0.36c1.67-0.83,3.26-1.79,4.73-2.92
			c0.07-0.05,0.11-0.09,0.17-0.11c0.48,0.36,0.97,0.71,1.47,1.01c0.88,0.62,1.8,1.16,2.74,1.65c0.29,0.16,0.59,0.31,0.88,0.45
			c0.18,0.09,0.37,0.18,0.55,0.27c0.31,0.15,0.62,0.29,0.94,0.42c0.24,0.11,0.48,0.2,0.72,0.31c0.17,0.07,0.35,0.15,0.52,0.22
			c0.02,0.13,0.02,0.27,0.02,0.4v0.05c0,0.34-0.02,0.67-0.05,0.98c-0.06,0.33-0.11,0.63-0.18,0.94c-0.07,0.31-0.18,0.6-0.29,0.89
			c-0.11,0.29-0.26,0.58-0.4,0.85C736.31,517.38,734.65,518.72,732.68,519.33z"/>
		<path class="st0" d="M730.57,384.19c-0.13,0-0.27,0.01-0.4,0.01l0.2,0.26L730.57,384.19z"/>
	</g>
	<g>
		<path class="st0" d="M877.28,503.01v-93.49h23.09v93.49H877.28z"/>
		<path class="st0" d="M914.64,503.01v-42.35v-32.44h19.41v30.46c0,0,2.93-13.43,4.82-18.2c1.89-4.77,4.58-8.33,8.07-10.69
			c3.49-2.36,7.93-3.54,13.31-3.54c8.12,0,14.24,2.69,18.34,8.07c4.11,5.38,6.16,13.41,6.16,24.08v44.62h-22.95v-41.65
			c0-5.1-0.78-8.92-2.34-11.47c-1.56-2.55-4.04-3.82-7.44-3.82c-2.83,0-5.34,0.99-7.51,2.97c-2.17,1.98-3.87,5.2-5.1,9.63
			c-1.23,4.44-1.84,10.39-1.84,17.85v26.49H914.64z"/>
		<path class="st0" d="M1057.92,471.14c-1.9-2.83-4.35-5.12-7.37-6.87c-2.51-1.44-5.18-2.66-8.01-3.6c-0.58-0.2-1.17-0.39-1.77-0.57
			c-3.5-1.05-6.84-1.9-10.05-2.55c-0.35-0.09-0.71-0.16-1.05-0.25c-3.21-0.74-5.85-1.46-7.95-2.09c-2.31-0.72-4.01-1.56-5.09-2.55
			c-1.09-0.99-1.63-2.2-1.63-3.62c0-1.78,0.88-3.27,2.63-4.45c1.75-1.18,4.22-1.78,7.43-1.78c2.85,0,5.25,0.5,7.22,1.49
			c1.98,0.99,3.5,2.47,4.54,4.39c1.02,1.93,1.42,4.23,1.14,6.95v0.07l19.42-0.07c0.76-6.7-0.19-13.86-3.06-17.92
			c-2.89-4.06-6.83-6.99-11.83-8.78c-5.01-1.79-10.39-2.68-16.14-2.68c-6.42,0-12.1,0.96-17,2.9c-4.92,1.93-8.76,4.71-11.54,8.35
			c-2.79,3.63-4.19,8.06-4.19,13.25c0,3.68,0.72,6.77,2.13,9.28c1.42,2.5,3.49,4.6,6.23,6.3c0.29,0.17,0.6,0.36,0.9,0.54
			c2.55,1.47,5.56,2.76,9.02,3.85c2.35,0.74,4.87,1.49,7.57,2.23c1.75,0.48,3.56,0.96,5.46,1.45c3.87,0.95,6.81,1.77,8.84,2.48
			c2.03,0.7,3.43,1.46,4.19,2.26c0.76,0.8,1.12,1.82,1.12,3.05c0,2.36-1.05,4.03-3.18,5.02c-2.13,0.99-4.65,1.49-7.57,1.49
			c-3.12,0-5.76-0.47-7.94-1.42c-2.17-0.93-3.87-2.42-5.09-4.47c-0.92-1.5-1.55-3.31-1.88-5.43h-20.25
			c-0.19,4.95,0.5,9.16,2.09,12.67c1.65,3.63,4.06,6.54,7.22,8.71c3.17,2.17,6.89,3.75,11.19,4.74c4.29,0.99,8.95,1.49,13.95,1.49
			c7.18,0,13.22-0.95,18.14-2.83c4.9-1.9,8.64-4.58,11.19-8.08c2.54-3.49,3.82-7.54,3.82-12.18
			C1060.75,477.56,1059.8,473.97,1057.92,471.14z"/>
		<path class="st0" d="M1133.18,442.45c-2.32-5.24-5.88-9.25-10.7-12.04c-4.82-2.79-10.96-4.17-18.42-4.17
			c-4.06,0-8.14,0.47-12.26,1.42c-4.1,0.93-7.88,2.53-11.32,4.74c-3.46,2.22-6.16,5.28-8.14,9.21c-1.9,3.74-2.8,8.42-2.71,14.02
			h20.46c0.16-2.54,0.77-4.57,1.79-6.1c1.33-1.93,3.02-3.27,5.11-4.03c2.07-0.76,4.14-1.14,6.23-1.14c3.3,0,5.97,0.72,8,2.13
			c2.03,1.42,3.05,3.49,3.05,6.23c0,1.33-0.45,2.36-1.34,3.11c-0.9,0.76-2.58,1.42-5.03,1.99c-2.45,0.57-6.14,1.33-11.05,2.28
			c-3.49,0.66-7.03,1.43-10.62,2.33c-3.59,0.89-6.9,2.22-9.92,3.97c-3.02,1.74-5.43,4.06-7.22,6.93c-1.79,2.89-2.69,6.64-2.69,11.27
			c0,5,1.08,8.99,3.25,11.97c2.17,2.98,4.96,5.12,8.36,6.45c3.4,1.31,6.99,1.98,10.77,1.98c5.09,0,9.6-1.06,13.53-3.2
			c3.91-2.12,7.08-4.95,9.49-8.49s5.03-11.69,5.03-11.69v21.39h19.83v-41.5C1136.66,454.05,1135.49,447.69,1133.18,442.45z
			 M1114.27,469.16c0,3.68-0.53,6.77-1.56,9.28c-1.04,2.5-2.38,4.45-4.03,5.87c-1.66,1.43-3.4,2.44-5.25,3.05
			c-1.84,0.61-3.56,0.92-5.17,0.92c-2.45,0-4.55-0.63-6.3-1.91c-1.75-1.27-2.61-3.14-2.61-5.59c0-2.09,0.58-3.71,1.77-4.89
			c1.18-1.18,2.71-2.13,4.6-2.83c1.9-0.72,3.94-1.28,6.17-1.71c2.22-0.42,4.41-0.85,6.58-1.27c2.15-0.42,4.07-1.01,5.81-1.74V469.16
			z"/>
		<path class="st0" d="M1155.51,428.22c-0.63,0.45-1.3,0.85-2.04,1.21v-1.21H1155.51z"/>
		<path class="st0" d="M1173.43,446.63v28.32c0,3.59,0.88,6.14,2.63,7.65c1.74,1.52,3.9,2.28,6.44,2.28c1.33,0,2.7-0.19,4.11-0.57
			c1.42-0.38,2.74-0.89,3.97-1.56v19.98c-2.93,0.85-5.53,1.39-7.79,1.62c-2.28,0.25-4.25,0.36-5.95,0.36
			c-8.78,0-15.32-2.25-19.61-6.73c-4.31-4.49-6.45-11.46-6.45-20.9v-30.45h-8.65v-18.42h8.65v-17.15h22.66v17.15h17.15v18.42
			H1173.43z"/>
		<path class="st0" d="M1155.51,428.22c-0.63,0.45-1.3,0.85-2.04,1.21v-1.21H1155.51z"/>
		<path class="st0" d="M1227.22,525.04c-2.83,0-5.95-0.24-9.35-0.71c-3.4-0.47-6.8-1.23-10.2-2.27c-3.4-1.04-6.57-2.36-9.49-3.97
			l5.24-23.09c3.4,3.21,7.2,5.48,11.4,6.8c4.2,1.32,7.95,1.98,11.26,1.98c4.63,0,8.52-0.92,11.69-2.76
			c3.16-1.84,5.55-4.53,7.15-8.07c1.6-3.54,2.41-7.86,2.41-12.96v-13.03c0,0-2.53,12.02-4.46,16.22c-1.94,4.2-4.56,7.29-7.86,9.28
			c-3.31,1.98-7.13,2.98-11.47,2.98c-5.38,0-9.85-1.37-13.39-4.11c-3.54-2.74-6.21-6.85-8-12.32c-1.79-5.48-2.69-12.32-2.69-20.54
			v-30.31h22.81v24.36c0,8.03,0.85,13.88,2.55,17.57c1.7,3.68,4.39,5.52,8.07,5.52c1.89,0,3.56-0.5,5.03-1.49
			c1.46-0.99,2.67-2.5,3.61-4.53c0.94-2.03,1.65-4.58,2.12-7.65c0.47-3.07,0.71-6.63,0.71-10.69v-23.09h22.81v52.69
			c0,5.1-0.52,9.89-1.56,14.38c-1.04,4.49-2.6,8.54-4.67,12.18c-2.08,3.63-4.7,6.77-7.86,9.42c-3.17,2.64-6.89,4.67-11.19,6.09
			C1237.58,524.33,1232.69,525.04,1227.22,525.04z"/>
		<polygon class="st0" points="1042.56,455.64 1061.98,455.64 1042.56,455.71 		"/>
		<path class="st0" d="M1024.07,466.87v6.08c-2.7-0.74-5.22-1.49-7.57-2.23c-3.46-1.09-6.46-2.38-9.02-3.85H1024.07z"/>
	</g>
</g>
<g>
	<g>
		<path class="st0" d="M807.04,1089.7c0-2.01-0.2-3.96-0.6-5.9l-0.18-0.74c-1.05-4.39-3.09-8.45-5.96-11.89
			c-3.84,2.06-7.87,3.67-12.03,4.8c0.1,0.73,0.19,1.49,0.27,2.27c0.17,1.78,0.26,3.58,0.26,5.51c0,8.41-2.94,17.91-5.31,24.22
			c-0.03,0.09-0.07,0.19-0.1,0.27c0.05,0.02,0.09,0.04,0.14,0.06l0.6,0.23c0.67,0.27,1.37,0.48,2.09,0.63
			c0.04,0.01,0.08,0.01,0.12,0.02c1.33,0.32,2.6,0.48,4.04,0.46c0.12,0,0.24,0,0.36-0.01c0.71-0.02,1.26-0.08,1.79-0.16l0.27-0.03
			c3.61-0.55,6.93-2.24,9.46-4.8l-0.33-0.3l2.66-2.65c1.62-2.64,2.45-5.6,2.45-8.66c0-0.39,0-0.77-0.03-1.15l-0.02-0.24l0.01-0.24
			C807.04,1090.83,807.04,1090.26,807.04,1089.7z"/>
		<path class="st0" d="M673.8,1098.53c-0.61-2.69-1.06-5.26-1.37-7.72c-0.32-2.49-0.49-4.86-0.49-7.06c0-2.67,0.18-5.28,0.54-7.78
			c-4.16-1.13-8.19-2.74-12.04-4.8c-2.87,3.44-4.91,7.49-5.96,11.87c-0.52,2.15-0.79,4.36-0.8,6.55c0,0.65,0.02,1.21,0.05,1.78
			l0.01,0.24l-0.02,0.24c-0.03,0.38-0.04,0.76-0.04,1.15c0,3.17,0.91,6.25,2.63,8.91c0.09,0.13,0.17,0.24,0.24,0.36
			c0.02,0.02,0.06,0.07,0.1,0.14c0.36,0.52,0.77,1.04,1.21,1.53c0.67,0.75,1.36,1.42,2.08,1.98c3,2.39,6.78,3.7,10.63,3.7
			c1.25,0,2.48-0.14,3.66-0.41c0.07-0.02,0.14-0.02,0.21-0.04c0.76-0.18,1.49-0.4,2.17-0.65c-0.07-0.21-0.13-0.41-0.19-0.62
			C675.36,1104.68,674.48,1101.54,673.8,1098.53z"/>
		<path class="st0" d="M682.55,1113.74l0.19-0.07c-0.01-0.01-0.01-0.02-0.02-0.03C682.67,1113.68,682.61,1113.71,682.55,1113.74z"/>
		<polygon class="st0" points="776.94,1115.43 777.12,1115.43 776.94,1115.43 		"/>
		<path class="st0" d="M779.97,1110.58c0.05-0.08,0.09-0.17,0.14-0.25l-0.26,0.18C779.88,1110.53,779.92,1110.55,779.97,1110.58z"/>
		<path class="st0" d="M681.1,1110.41c0.27-0.16,0.25-0.18,0-0.03C681.1,1110.39,681.11,1110.43,681.1,1110.41z"/>
		<polygon class="st0" points="783.53,1094.83 783.53,1094.82 783.53,1094.82 		"/>
		<path class="st0" d="M773.48,1115.4c-0.02,0.02-0.02,0.02-0.04,0.04v0.02c0.09-0.07,0.17-0.16,0.24-0.24
			c-0.04,0.04-0.09,0.07-0.13,0.11L773.48,1115.4z"/>
		<path class="st0" d="M783.41,1087.83c0.02,0.13,0.04,0.24,0.04,0.36c0-0.16-0.02-0.34-0.04-0.51V1087.83z"/>
		<path class="st0" d="M813.01,987.18c-0.29-0.87-0.61-1.74-0.92-2.61c-0.37,0.11-0.75,0.22-1.12,0.34
			c-14.99,4.51-28.25,12.89-38.58,23.98c-12.3-6.58-26.43-10.31-41.42-10.31c-15.34,0-29.74,3.91-42.24,10.76
			c-10.37-11.31-23.78-19.86-38.95-24.45c-0.39-0.11-0.77-0.24-1.16-0.34c-0.33,0.89-0.64,1.78-0.94,2.66
			c-2.83,8.45-4.36,17.49-4.36,26.88c0,12.78,2.85,24.9,7.94,35.79c2.07,4.44,10.36,13.6,10.36,13.6
			c4.87,2.94,10.09,5.01,15.53,6.16l3.79,0.78l-0.68,3.55c-0.05,0.25-0.11,0.49-0.13,0.74l-0.05,0.32c-0.53,2.74-0.8,5.68-0.8,8.73
			c0,4.47,0.82,9.91,2.34,15.82c0.28,1.08,0.58,2.18,0.9,3.29c0.5,1.71,1.05,3.46,1.66,5.22c0.07,0.2,0.13,0.39,0.2,0.59
			c0.19,0.55,0.31,0.89,0.36,1.3c0.07,0.11,0.13,0.23,0.2,0.34c1.26,2.09,2.67,4.07,4.2,5.96c4.55,5.59,10.24,10.23,16.72,13.59
			c7.33,3.8,15.66,5.96,24.5,5.96c9.36,0,18.15-2.42,25.78-6.65c5.12-2.84,9.72-6.49,13.61-10.78c0.64-0.71,1.27-1.44,1.88-2.18
			c0.46-0.57,0.91-1.14,1.34-1.73c0.79-1.06,1.99-4.96,2.49-6.17c1.94-4.74,3.44-9.3,4.45-13.49c0.1-0.41,0.17-0.8,0.26-1.2
			l0.23,0.07l-0.2-0.21c0.19-0.87,0.37-1.73,0.51-2.57c0.16-0.92,0.3-1.82,0.41-2.7c0.02-0.17,0.04-0.34,0.05-0.51
			c0.15-1.39,0.26-2.73,0.26-3.97c0-1.69-0.07-3.26-0.22-4.8c-0.18-1.79-0.43-3.42-0.75-4.96l-0.73-3.49l3.84-0.85
			c0.36-0.08,0.72-0.16,1.08-0.25c5.1-1.2,9.94-3.19,14.45-5.92c0,0,8.79-10,10.97-14.94c4.71-10.53,7.32-22.18,7.32-34.43
			C817.39,1004.7,815.86,995.64,813.01,987.18z M697.94,1021.76c9.75-6.62,21.17-10.12,33.04-10.12c11.44,0,22.54,3.28,32.09,9.5
			l2.94,1.91l-1.81,2.98c-0.29,0.48-0.56,0.95-0.82,1.45c-1.76,3.16-3.28,6.37-4.57,9.64c-0.27,0.62-0.45,1.11-0.62,1.61l-1.36,4.04
			l-3.83-1.97c-3.87-1.99-8-3.47-12.28-4.38c-0.52-0.11-1.06-0.22-1.62-0.3c-5.8-1.05-11.78-1.02-17.31-0.02
			c-0.7,0.1-1.24,0.21-1.78,0.33c-4.29,0.92-8.43,2.39-12.27,4.39l-3.73,1.94l-1.44-3.9c-0.21-0.57-0.42-1.12-0.65-1.68
			c-1.2-3.07-2.61-6.1-4.21-9.02c-0.3-0.58-0.59-1.1-0.88-1.6l-1.65-2.89L697.94,1021.76z M757.82,1103.63
			c-2.3,0.87-4.8,1.36-7.41,1.36c-0.81,0-1.62-0.05-2.41-0.15c-0.79-0.09-1.58-0.22-2.34-0.4c-0.02-0.04-0.05-0.07-0.07-0.09
			c0.29-0.83,0.64-1.65,1.05-2.45c0.66-1.4,1.43-2.74,2.3-4.02c1.31-1.9,2.79-3.68,4.47-5.31c4.69-4.51,10.76-7.68,17.53-8.83
			c0.02,0.33,0.02,0.65,0.02,1c0,0.38-0.02,0.76-0.04,1.14v0.05c-0.09,1.54-0.35,3.03-0.77,4.44c-0.11,0.05-0.24,0.11-0.35,0.18
			c-0.07,0.42-0.11,0.8-0.13,1.23v0.02C767.63,1097.24,763.29,1101.55,757.82,1103.63z M714.09,1101.93c-0.4,1-0.86,1.98-1.38,2.92
			c-0.79,0.09-1.6,0.15-2.41,0.15c-2.61,0-5.09-0.47-7.39-1.36c-5.46-2.07-9.78-6.36-11.84-11.76c0-0.02,0-0.02,0-0.04
			c-0.02-0.42-0.05-0.85-0.11-1.25h-0.02c-0.18-1.63-0.57-3.21-1.14-4.69c0,0,0,0-0.02-0.02c0-0.36-0.02-0.74-0.02-1.12
			c0-0.34,0-0.67,0.02-1c6.77,1.14,12.84,4.31,17.53,8.83c1.67,1.63,3.16,3.41,4.47,5.31
			C712.64,1099.18,713.41,1100.53,714.09,1101.93z M732.68,1130.11c-0.74,0.2-1.49,0.33-2.3,0.33c-4.34,0-7.85-3.46-7.85-7.72v-0.2
			c0-0.07,0-0.16,0.02-0.24v-0.02c0.24-0.07,0.48-0.18,0.7-0.27c0.51-0.2,0.99-0.44,1.49-0.65c0.26-0.11,0.5-0.24,0.74-0.36
			c1.67-0.83,3.26-1.79,4.73-2.92c0.07-0.05,0.11-0.09,0.17-0.11c0.48,0.36,0.97,0.71,1.47,1.01c0.88,0.62,1.8,1.16,2.74,1.65
			c0.29,0.16,0.59,0.31,0.88,0.45c0.18,0.09,0.37,0.18,0.55,0.27c0.31,0.15,0.62,0.29,0.94,0.42c0.24,0.11,0.48,0.2,0.72,0.31
			c0.17,0.07,0.35,0.15,0.52,0.22c0.02,0.13,0.02,0.27,0.02,0.4v0.05c0,0.34-0.02,0.67-0.05,0.98c-0.06,0.33-0.11,0.63-0.18,0.94
			c-0.07,0.31-0.18,0.6-0.29,0.89c-0.11,0.29-0.26,0.58-0.4,0.85C736.31,1128.15,734.65,1129.49,732.68,1130.11z"/>
		<path class="st0" d="M730.57,994.96c-0.13,0-0.27,0.01-0.4,0.01l0.2,0.26L730.57,994.96z"/>
	</g>
	<g>
		<path class="st1" d="M877.28,1113.79v-93.49h23.09v93.49H877.28z"/>
		<path class="st1" d="M914.64,1113.79v-42.35V1039h19.41v30.46c0,0,2.93-13.43,4.82-18.2c1.89-4.77,4.58-8.33,8.07-10.69
			c3.49-2.36,7.93-3.54,13.31-3.54c8.12,0,14.24,2.69,18.34,8.07c4.11,5.38,6.16,13.41,6.16,24.08v44.62h-22.95v-41.65
			c0-5.1-0.78-8.92-2.34-11.47c-1.56-2.55-4.04-3.82-7.44-3.82c-2.83,0-5.34,0.99-7.51,2.97c-2.17,1.98-3.87,5.2-5.1,9.63
			c-1.23,4.44-1.84,10.39-1.84,17.85v26.49H914.64z"/>
		<path class="st1" d="M1057.92,1081.92c-1.9-2.83-4.35-5.12-7.37-6.87c-2.51-1.44-5.18-2.66-8.01-3.6
			c-0.58-0.2-1.17-0.39-1.77-0.57c-3.5-1.05-6.84-1.9-10.05-2.55c-0.35-0.09-0.71-0.16-1.05-0.25c-3.21-0.74-5.85-1.46-7.95-2.09
			c-2.31-0.72-4.01-1.56-5.09-2.55c-1.09-0.99-1.63-2.2-1.63-3.62c0-1.78,0.88-3.27,2.63-4.45c1.75-1.18,4.22-1.78,7.43-1.78
			c2.85,0,5.25,0.5,7.22,1.49c1.98,0.99,3.5,2.47,4.54,4.39c1.02,1.93,1.42,4.23,1.14,6.95v0.07l19.42-0.07
			c0.76-6.7-0.19-13.86-3.06-17.92c-2.89-4.06-6.83-6.99-11.83-8.78c-5.01-1.79-10.39-2.68-16.14-2.68c-6.42,0-12.1,0.96-17,2.9
			c-4.92,1.93-8.76,4.71-11.54,8.35c-2.79,3.63-4.19,8.06-4.19,13.25c0,3.68,0.72,6.77,2.13,9.28c1.42,2.5,3.49,4.6,6.23,6.3
			c0.29,0.17,0.6,0.36,0.9,0.54c2.55,1.47,5.56,2.76,9.02,3.85c2.35,0.74,4.87,1.49,7.57,2.23c1.75,0.48,3.56,0.96,5.46,1.44
			c3.87,0.95,6.81,1.77,8.84,2.48c2.03,0.7,3.43,1.46,4.19,2.26c0.76,0.8,1.12,1.82,1.12,3.05c0,2.36-1.05,4.03-3.18,5.02
			c-2.13,0.99-4.65,1.49-7.57,1.49c-3.12,0-5.76-0.47-7.94-1.42c-2.17-0.93-3.87-2.42-5.09-4.47c-0.92-1.5-1.55-3.31-1.88-5.43
			h-20.25c-0.19,4.95,0.5,9.16,2.09,12.67c1.65,3.63,4.06,6.54,7.22,8.71c3.17,2.17,6.89,3.75,11.19,4.74
			c4.29,0.99,8.95,1.49,13.95,1.49c7.18,0,13.22-0.95,18.14-2.83c4.9-1.9,8.64-4.58,11.19-8.08c2.54-3.49,3.82-7.54,3.82-12.18
			C1060.75,1088.34,1059.8,1084.75,1057.92,1081.92z"/>
		<path class="st1" d="M1133.18,1053.23c-2.32-5.24-5.88-9.25-10.7-12.04c-4.82-2.79-10.96-4.17-18.42-4.17
			c-4.06,0-8.14,0.47-12.26,1.42c-4.1,0.93-7.88,2.53-11.32,4.74c-3.46,2.22-6.16,5.28-8.14,9.21c-1.9,3.74-2.8,8.42-2.71,14.02
			h20.46c0.16-2.54,0.77-4.57,1.79-6.1c1.33-1.93,3.02-3.27,5.11-4.03c2.07-0.76,4.14-1.14,6.23-1.14c3.3,0,5.97,0.72,8,2.13
			c2.03,1.42,3.05,3.49,3.05,6.23c0,1.33-0.45,2.36-1.34,3.11c-0.9,0.76-2.58,1.42-5.03,1.99c-2.45,0.57-6.14,1.33-11.05,2.28
			c-3.49,0.66-7.03,1.43-10.62,2.33c-3.59,0.89-6.9,2.22-9.92,3.97c-3.02,1.74-5.43,4.06-7.22,6.93c-1.79,2.89-2.69,6.64-2.69,11.27
			c0,5,1.08,8.99,3.25,11.97c2.17,2.98,4.96,5.12,8.36,6.45c3.4,1.31,6.99,1.98,10.77,1.98c5.09,0,9.6-1.06,13.53-3.2
			c3.91-2.12,7.08-4.95,9.49-8.49c2.41-3.55,5.03-11.69,5.03-11.69v21.39h19.83v-41.5
			C1136.66,1064.83,1135.49,1058.47,1133.18,1053.23z M1114.27,1079.94c0,3.68-0.53,6.77-1.56,9.28c-1.04,2.5-2.38,4.45-4.03,5.87
			c-1.66,1.43-3.4,2.44-5.25,3.05c-1.84,0.61-3.56,0.92-5.17,0.92c-2.45,0-4.55-0.63-6.3-1.91c-1.75-1.27-2.61-3.14-2.61-5.59
			c0-2.09,0.58-3.71,1.77-4.89c1.18-1.18,2.71-2.13,4.6-2.83c1.9-0.72,3.94-1.28,6.17-1.71c2.22-0.42,4.41-0.85,6.58-1.27
			c2.15-0.42,4.07-1.01,5.81-1.74V1079.94z"/>
		<path class="st1" d="M1155.51,1039c-0.63,0.45-1.3,0.85-2.04,1.21V1039H1155.51z"/>
		<path class="st1" d="M1173.43,1057.41v28.32c0,3.59,0.88,6.14,2.63,7.65c1.74,1.52,3.9,2.28,6.44,2.28c1.33,0,2.7-0.19,4.11-0.57
			c1.42-0.38,2.74-0.89,3.97-1.56v19.98c-2.93,0.85-5.53,1.39-7.79,1.62c-2.28,0.25-4.25,0.36-5.95,0.36
			c-8.78,0-15.32-2.25-19.61-6.73c-4.31-4.49-6.45-11.46-6.45-20.9v-30.45h-8.65V1039h8.65v-17.15h22.66V1039h17.15v18.42H1173.43z"
			/>
		<path class="st1" d="M1155.51,1039c-0.63,0.45-1.3,0.85-2.04,1.21V1039H1155.51z"/>
		<path class="st1" d="M1227.22,1135.82c-2.83,0-5.95-0.24-9.35-0.71c-3.4-0.47-6.8-1.23-10.2-2.27c-3.4-1.04-6.57-2.36-9.49-3.97
			l5.24-23.09c3.4,3.21,7.2,5.48,11.4,6.8c4.2,1.32,7.95,1.98,11.26,1.98c4.63,0,8.52-0.92,11.69-2.76
			c3.16-1.84,5.55-4.53,7.15-8.07c1.6-3.54,2.41-7.86,2.41-12.96v-13.03c0,0-2.53,12.02-4.46,16.22c-1.94,4.2-4.56,7.29-7.86,9.28
			c-3.31,1.98-7.13,2.98-11.47,2.98c-5.38,0-9.85-1.37-13.39-4.11c-3.54-2.74-6.21-6.85-8-12.32c-1.79-5.47-2.69-12.32-2.69-20.54
			v-30.31h22.81v24.36c0,8.03,0.85,13.88,2.55,17.57c1.7,3.68,4.39,5.52,8.07,5.52c1.89,0,3.56-0.5,5.03-1.49
			c1.46-0.99,2.67-2.5,3.61-4.53c0.94-2.03,1.65-4.58,2.12-7.65c0.47-3.07,0.71-6.63,0.71-10.69v-23.09h22.81v52.69
			c0,5.1-0.52,9.89-1.56,14.38c-1.04,4.49-2.6,8.54-4.67,12.18c-2.08,3.63-4.7,6.77-7.86,9.42c-3.17,2.64-6.89,4.67-11.19,6.09
			C1237.58,1135.11,1232.69,1135.82,1227.22,1135.82z"/>
		<polygon class="st1" points="1042.56,1066.41 1061.98,1066.41 1042.56,1066.49 		"/>
		<path class="st1" d="M1024.07,1077.65v6.08c-2.7-0.74-5.22-1.49-7.57-2.23c-3.46-1.09-6.46-2.38-9.02-3.85H1024.07z"/>
	</g>
</g>
<g>
	<g>
		<path class="st1" d="M807.04,1703.78c0-2.01-0.2-3.96-0.6-5.9l-0.18-0.74c-1.05-4.39-3.09-8.45-5.96-11.89
			c-3.84,2.06-7.87,3.67-12.03,4.8c0.1,0.73,0.19,1.49,0.27,2.27c0.17,1.78,0.26,3.58,0.26,5.51c0,8.41-2.94,17.91-5.31,24.22
			c-0.03,0.09-0.07,0.19-0.1,0.27c0.05,0.02,0.09,0.04,0.14,0.06l0.6,0.23c0.67,0.27,1.37,0.48,2.09,0.63
			c0.04,0.01,0.08,0.01,0.12,0.02c1.33,0.32,2.6,0.48,4.04,0.46c0.12,0,0.24,0,0.36-0.01c0.71-0.02,1.26-0.08,1.79-0.16l0.27-0.03
			c3.61-0.55,6.93-2.24,9.46-4.8l-0.33-0.3l2.66-2.65c1.62-2.64,2.45-5.6,2.45-8.66c0-0.39,0-0.77-0.03-1.15l-0.02-0.24l0.01-0.24
			C807.04,1704.91,807.04,1704.35,807.04,1703.78z"/>
		<path class="st1" d="M673.8,1712.61c-0.61-2.69-1.06-5.26-1.37-7.72c-0.32-2.49-0.49-4.86-0.49-7.06c0-2.67,0.18-5.28,0.54-7.78
			c-4.16-1.13-8.19-2.74-12.04-4.8c-2.87,3.44-4.91,7.49-5.96,11.87c-0.52,2.15-0.79,4.36-0.8,6.55c0,0.65,0.02,1.21,0.05,1.78
			l0.01,0.24l-0.02,0.24c-0.03,0.38-0.04,0.76-0.04,1.15c0,3.17,0.91,6.25,2.63,8.91c0.09,0.13,0.17,0.24,0.24,0.36
			c0.02,0.02,0.06,0.07,0.1,0.14c0.36,0.52,0.77,1.04,1.21,1.53c0.67,0.75,1.36,1.42,2.08,1.98c3,2.39,6.78,3.7,10.63,3.7
			c1.25,0,2.48-0.14,3.66-0.41c0.07-0.02,0.14-0.02,0.21-0.04c0.76-0.18,1.49-0.4,2.17-0.65c-0.07-0.21-0.13-0.41-0.19-0.62
			C675.36,1718.77,674.48,1715.62,673.8,1712.61z"/>
		<path class="st1" d="M682.55,1727.83l0.19-0.07c-0.01-0.01-0.01-0.02-0.02-0.03C682.67,1727.76,682.61,1727.79,682.55,1727.83z"/>
		<polygon class="st1" points="776.94,1729.52 777.12,1729.52 776.94,1729.52 		"/>
		<path class="st1" d="M779.97,1724.66c0.05-0.08,0.09-0.17,0.14-0.25l-0.26,0.18C779.88,1724.61,779.92,1724.64,779.97,1724.66z"/>
		<path class="st1" d="M681.1,1724.5c0.27-0.16,0.25-0.18,0-0.03C681.1,1724.48,681.11,1724.51,681.1,1724.5z"/>
		<polygon class="st1" points="783.53,1708.91 783.53,1708.91 783.53,1708.91 		"/>
		<path class="st1" d="M773.48,1729.48c-0.02,0.02-0.02,0.02-0.04,0.04v0.02c0.09-0.07,0.17-0.16,0.24-0.24
			c-0.04,0.04-0.09,0.07-0.13,0.11L773.48,1729.48z"/>
		<path class="st1" d="M783.41,1701.92c0.02,0.13,0.04,0.24,0.04,0.36c0-0.16-0.02-0.34-0.04-0.51V1701.92z"/>
		<path class="st1" d="M813.01,1601.26c-0.29-0.87-0.61-1.74-0.92-2.61c-0.37,0.11-0.75,0.22-1.12,0.34
			c-14.99,4.51-28.25,12.89-38.58,23.98c-12.3-6.58-26.43-10.31-41.42-10.31c-15.34,0-29.74,3.91-42.24,10.76
			c-10.37-11.31-23.78-19.86-38.95-24.45c-0.39-0.11-0.77-0.24-1.16-0.34c-0.33,0.89-0.64,1.78-0.94,2.66
			c-2.83,8.45-4.36,17.49-4.36,26.88c0,12.78,2.85,24.9,7.94,35.79c2.07,4.44,10.36,13.6,10.36,13.6
			c4.87,2.94,10.09,5.01,15.53,6.16l3.79,0.78l-0.68,3.55c-0.05,0.25-0.11,0.49-0.13,0.74l-0.05,0.32c-0.53,2.74-0.8,5.68-0.8,8.73
			c0,4.47,0.82,9.91,2.34,15.82c0.28,1.08,0.58,2.18,0.9,3.29c0.5,1.71,1.05,3.46,1.66,5.22c0.07,0.2,0.13,0.39,0.2,0.59
			c0.19,0.55,0.31,0.89,0.36,1.3c0.07,0.11,0.13,0.23,0.2,0.34c1.26,2.09,2.67,4.07,4.2,5.96c4.55,5.59,10.24,10.23,16.72,13.59
			c7.33,3.8,15.66,5.96,24.5,5.96c9.36,0,18.15-2.42,25.78-6.65c5.12-2.84,9.72-6.49,13.61-10.78c0.64-0.71,1.27-1.44,1.88-2.18
			c0.46-0.57,0.91-1.14,1.34-1.73c0.79-1.06,1.99-4.96,2.49-6.17c1.94-4.74,3.44-9.3,4.45-13.49c0.1-0.41,0.17-0.8,0.26-1.2
			l0.23,0.07l-0.2-0.21c0.19-0.87,0.37-1.73,0.51-2.57c0.16-0.92,0.3-1.82,0.41-2.7c0.02-0.17,0.04-0.34,0.05-0.51
			c0.15-1.39,0.26-2.73,0.26-3.97c0-1.69-0.07-3.26-0.22-4.8c-0.18-1.79-0.43-3.42-0.75-4.96l-0.73-3.49l3.84-0.85
			c0.36-0.08,0.72-0.16,1.08-0.25c5.1-1.2,9.94-3.19,14.45-5.92c0,0,8.79-10,10.97-14.94c4.71-10.53,7.32-22.18,7.32-34.43
			C817.39,1618.79,815.86,1609.73,813.01,1601.26z M697.94,1635.84c9.75-6.62,21.17-10.12,33.04-10.12c11.44,0,22.54,3.28,32.09,9.5
			l2.94,1.91l-1.81,2.98c-0.29,0.48-0.56,0.95-0.82,1.45c-1.76,3.16-3.28,6.37-4.57,9.64c-0.27,0.62-0.45,1.11-0.62,1.61l-1.36,4.04
			l-3.83-1.97c-3.87-1.99-8-3.47-12.28-4.38c-0.52-0.11-1.06-0.22-1.62-0.3c-5.8-1.05-11.78-1.02-17.31-0.02
			c-0.7,0.1-1.24,0.21-1.78,0.33c-4.29,0.92-8.43,2.39-12.27,4.39l-3.73,1.94l-1.44-3.9c-0.21-0.57-0.42-1.12-0.65-1.68
			c-1.2-3.07-2.61-6.1-4.21-9.02c-0.3-0.58-0.59-1.1-0.88-1.6l-1.65-2.89L697.94,1635.84z M757.82,1717.72
			c-2.3,0.87-4.8,1.36-7.41,1.36c-0.81,0-1.62-0.05-2.41-0.15c-0.79-0.09-1.58-0.22-2.34-0.4c-0.02-0.04-0.05-0.07-0.07-0.09
			c0.29-0.83,0.64-1.65,1.05-2.45c0.66-1.4,1.43-2.74,2.3-4.02c1.31-1.9,2.79-3.68,4.47-5.31c4.69-4.51,10.76-7.68,17.53-8.83
			c0.02,0.33,0.02,0.65,0.02,1c0,0.38-0.02,0.76-0.04,1.14v0.05c-0.09,1.54-0.35,3.03-0.77,4.44c-0.11,0.05-0.24,0.11-0.35,0.18
			c-0.07,0.42-0.11,0.8-0.13,1.23v0.02C767.63,1711.32,763.29,1715.64,757.82,1717.72z M714.09,1716.02c-0.4,1-0.86,1.98-1.38,2.92
			c-0.79,0.09-1.6,0.15-2.41,0.15c-2.61,0-5.09-0.47-7.39-1.36c-5.46-2.07-9.78-6.36-11.84-11.76c0-0.02,0-0.02,0-0.04
			c-0.02-0.42-0.05-0.85-0.11-1.25h-0.02c-0.18-1.63-0.57-3.21-1.14-4.69c0,0,0,0-0.02-0.02c0-0.36-0.02-0.74-0.02-1.12
			c0-0.34,0-0.67,0.02-1c6.77,1.14,12.84,4.31,17.53,8.83c1.67,1.63,3.16,3.41,4.47,5.31
			C712.64,1713.26,713.41,1714.62,714.09,1716.02z M732.68,1744.2c-0.74,0.2-1.49,0.33-2.3,0.33c-4.34,0-7.85-3.46-7.85-7.72v-0.2
			c0-0.07,0-0.16,0.02-0.24v-0.02c0.24-0.07,0.48-0.18,0.7-0.27c0.51-0.2,0.99-0.44,1.49-0.65c0.26-0.11,0.5-0.24,0.74-0.36
			c1.67-0.83,3.26-1.79,4.73-2.92c0.07-0.05,0.11-0.09,0.17-0.11c0.48,0.36,0.97,0.71,1.47,1.02c0.88,0.62,1.8,1.16,2.74,1.65
			c0.29,0.16,0.59,0.31,0.88,0.45c0.18,0.09,0.37,0.18,0.55,0.27c0.31,0.15,0.62,0.29,0.94,0.42c0.24,0.11,0.48,0.2,0.72,0.31
			c0.17,0.07,0.35,0.15,0.52,0.22c0.02,0.13,0.02,0.27,0.02,0.4v0.05c0,0.34-0.02,0.67-0.05,0.98c-0.06,0.33-0.11,0.63-0.18,0.94
			c-0.07,0.31-0.18,0.6-0.29,0.89c-0.11,0.29-0.26,0.58-0.4,0.85C736.31,1742.24,734.65,1743.58,732.68,1744.2z"/>
		<path class="st1" d="M730.57,1609.05c-0.13,0-0.27,0.01-0.4,0.01l0.2,0.26L730.57,1609.05z"/>
	</g>
	<g>
		<path class="st1" d="M877.28,1727.88v-93.49h23.09v93.49H877.28z"/>
		<path class="st1" d="M914.64,1727.88v-42.35v-32.44h19.41v30.46c0,0,2.93-13.43,4.82-18.2c1.89-4.77,4.58-8.33,8.07-10.69
			c3.49-2.36,7.93-3.54,13.31-3.54c8.12,0,14.24,2.69,18.34,8.07c4.11,5.38,6.16,13.41,6.16,24.08v44.62h-22.95v-41.65
			c0-5.1-0.78-8.92-2.34-11.47c-1.56-2.55-4.04-3.82-7.44-3.82c-2.83,0-5.34,0.99-7.51,2.97c-2.17,1.98-3.87,5.2-5.1,9.63
			c-1.23,4.44-1.84,10.39-1.84,17.85v26.49H914.64z"/>
		<path class="st1" d="M1057.92,1696.01c-1.9-2.83-4.35-5.12-7.37-6.87c-2.51-1.44-5.18-2.66-8.01-3.6
			c-0.58-0.2-1.17-0.39-1.77-0.57c-3.5-1.05-6.84-1.9-10.05-2.55c-0.35-0.09-0.71-0.16-1.05-0.25c-3.21-0.74-5.85-1.46-7.95-2.09
			c-2.31-0.72-4.01-1.56-5.09-2.55c-1.09-0.99-1.63-2.2-1.63-3.62c0-1.78,0.88-3.27,2.63-4.45c1.75-1.18,4.22-1.78,7.43-1.78
			c2.85,0,5.25,0.5,7.22,1.49c1.98,0.99,3.5,2.47,4.54,4.39c1.02,1.93,1.42,4.23,1.14,6.95v0.07l19.42-0.07
			c0.76-6.7-0.19-13.86-3.06-17.92c-2.89-4.06-6.83-6.99-11.83-8.78c-5.01-1.79-10.39-2.68-16.14-2.68c-6.42,0-12.1,0.96-17,2.9
			c-4.92,1.93-8.76,4.71-11.54,8.35c-2.79,3.63-4.19,8.06-4.19,13.25c0,3.68,0.72,6.77,2.13,9.28c1.42,2.5,3.49,4.6,6.23,6.3
			c0.29,0.17,0.6,0.36,0.9,0.54c2.55,1.47,5.56,2.76,9.02,3.85c2.35,0.74,4.87,1.49,7.57,2.23c1.75,0.48,3.56,0.96,5.46,1.44
			c3.87,0.95,6.81,1.77,8.84,2.48c2.03,0.7,3.43,1.46,4.19,2.26c0.76,0.8,1.12,1.82,1.12,3.05c0,2.36-1.05,4.03-3.18,5.02
			c-2.13,0.99-4.65,1.49-7.57,1.49c-3.12,0-5.76-0.47-7.94-1.42c-2.17-0.93-3.87-2.42-5.09-4.47c-0.92-1.5-1.55-3.31-1.88-5.43
			h-20.25c-0.19,4.95,0.5,9.16,2.09,12.67c1.65,3.63,4.06,6.54,7.22,8.71c3.17,2.17,6.89,3.75,11.19,4.74
			c4.29,0.99,8.95,1.49,13.95,1.49c7.18,0,13.22-0.95,18.14-2.83c4.9-1.9,8.64-4.58,11.19-8.08c2.54-3.49,3.82-7.54,3.82-12.18
			C1060.75,1702.43,1059.8,1698.84,1057.92,1696.01z"/>
		<path class="st1" d="M1133.18,1667.32c-2.32-5.24-5.88-9.25-10.7-12.04c-4.82-2.79-10.96-4.17-18.42-4.17
			c-4.06,0-8.14,0.47-12.26,1.42c-4.1,0.93-7.88,2.53-11.32,4.74c-3.46,2.22-6.16,5.28-8.14,9.21c-1.9,3.74-2.8,8.42-2.71,14.02
			h20.46c0.16-2.54,0.77-4.57,1.79-6.1c1.33-1.93,3.02-3.27,5.11-4.03c2.07-0.76,4.14-1.14,6.23-1.14c3.3,0,5.97,0.72,8,2.13
			c2.03,1.42,3.05,3.49,3.05,6.23c0,1.33-0.45,2.36-1.34,3.11c-0.9,0.76-2.58,1.42-5.03,1.99c-2.45,0.57-6.14,1.33-11.05,2.28
			c-3.49,0.66-7.03,1.43-10.62,2.33c-3.59,0.89-6.9,2.22-9.92,3.97c-3.02,1.74-5.43,4.06-7.22,6.93c-1.79,2.89-2.69,6.64-2.69,11.27
			c0,5,1.08,8.99,3.25,11.97c2.17,2.98,4.96,5.12,8.36,6.45c3.4,1.31,6.99,1.98,10.77,1.98c5.09,0,9.6-1.06,13.53-3.2
			c3.91-2.12,7.08-4.95,9.49-8.49c2.41-3.55,5.03-11.69,5.03-11.69v21.39h19.83v-41.5
			C1136.66,1678.92,1135.49,1672.56,1133.18,1667.32z M1114.27,1694.02c0,3.68-0.53,6.77-1.56,9.28c-1.04,2.5-2.38,4.45-4.03,5.87
			c-1.66,1.43-3.4,2.44-5.25,3.05c-1.84,0.61-3.56,0.92-5.17,0.92c-2.45,0-4.55-0.63-6.3-1.91c-1.75-1.27-2.61-3.14-2.61-5.59
			c0-2.09,0.58-3.71,1.77-4.89c1.18-1.18,2.71-2.13,4.6-2.83c1.9-0.72,3.94-1.28,6.17-1.71c2.22-0.42,4.41-0.85,6.58-1.27
			c2.15-0.42,4.07-1.01,5.81-1.74V1694.02z"/>
		<path class="st1" d="M1155.51,1653.09c-0.63,0.45-1.3,0.85-2.04,1.21v-1.21H1155.51z"/>
		<path class="st1" d="M1173.43,1671.5v28.32c0,3.59,0.88,6.14,2.63,7.65c1.74,1.52,3.9,2.28,6.44,2.28c1.33,0,2.7-0.19,4.11-0.57
			c1.42-0.38,2.74-0.89,3.97-1.56v19.98c-2.93,0.85-5.53,1.39-7.79,1.62c-2.28,0.25-4.25,0.36-5.95,0.36
			c-8.78,0-15.32-2.25-19.61-6.73c-4.31-4.49-6.45-11.46-6.45-20.9v-30.45h-8.65v-18.42h8.65v-17.15h22.66v17.15h17.15v18.42
			H1173.43z"/>
		<path class="st1" d="M1155.51,1653.09c-0.63,0.45-1.3,0.85-2.04,1.21v-1.21H1155.51z"/>
		<path class="st1" d="M1227.22,1749.91c-2.83,0-5.95-0.24-9.35-0.71c-3.4-0.47-6.8-1.23-10.2-2.27c-3.4-1.04-6.57-2.36-9.49-3.97
			l5.24-23.09c3.4,3.21,7.2,5.48,11.4,6.8c4.2,1.32,7.95,1.98,11.26,1.98c4.63,0,8.52-0.92,11.69-2.76
			c3.16-1.84,5.55-4.53,7.15-8.07c1.6-3.54,2.41-7.86,2.41-12.96v-13.03c0,0-2.53,12.02-4.46,16.22c-1.94,4.2-4.56,7.29-7.86,9.28
			c-3.31,1.98-7.13,2.98-11.47,2.98c-5.38,0-9.85-1.37-13.39-4.11c-3.54-2.74-6.21-6.85-8-12.32c-1.79-5.47-2.69-12.32-2.69-20.54
			v-30.31h22.81v24.36c0,8.03,0.85,13.88,2.55,17.57c1.7,3.68,4.39,5.52,8.07,5.52c1.89,0,3.56-0.5,5.03-1.49
			c1.46-0.99,2.67-2.5,3.61-4.53c0.94-2.03,1.65-4.58,2.12-7.65c0.47-3.07,0.71-6.63,0.71-10.69v-23.09h22.81v52.69
			c0,5.1-0.52,9.89-1.56,14.38c-1.04,4.49-2.6,8.54-4.67,12.18c-2.08,3.63-4.7,6.77-7.86,9.42c-3.17,2.64-6.89,4.67-11.19,6.09
			C1237.58,1749.2,1232.69,1749.91,1227.22,1749.91z"/>
		<polygon class="st1" points="1042.56,1680.5 1061.98,1680.5 1042.56,1680.57 		"/>
		<path class="st1" d="M1024.07,1691.74v6.08c-2.7-0.74-5.22-1.49-7.57-2.23c-3.46-1.09-6.46-2.38-9.02-3.85H1024.07z"/>
	</g>
</g>
</svg>
